/* XPM */
static char *_785ee7f9a21418f9e5d70c1962544f3[] = {
/* columns rows colors chars-per-pixel */
"32 32 94 2 ",
"   c #201B72",
".  c #201C72",
"X  c #211D73",
"o  c #221E74",
"O  c #221F75",
"+  c #232075",
"@  c #252378",
"#  c #242478",
"$  c #252478",
"%  c #262579",
"&  c #27287B",
"*  c #28297C",
"=  c #282B7D",
"-  c #292B7D",
";  c #292C7E",
":  c #292D7E",
">  c #F99F1A",
",  c #2A2F80",
"<  c #2B3081",
"1  c #2C3282",
"2  c #2D3383",
"3  c #2D3483",
"4  c #2E3584",
"5  c #2E3685",
"6  c #2F3887",
"7  c #313A88",
"8  c #333D8A",
"9  c #364590",
"0  c #374791",
"q  c #384791",
"w  c #3A4C94",
"e  c #3E5299",
"r  c #41589D",
"t  c #43589D",
"y  c #445EA1",
"u  c #4E64A5",
"i  c #4E67A7",
"p  c #4B68A8",
"a  c #4E69A8",
"s  c #4D6AA9",
"d  c #4E6DAB",
"f  c #5475B1",
"g  c #5575B1",
"h  c #5A75B0",
"j  c #5778B3",
"k  c #5B7EB7",
"l  c #5D7DB6",
"z  c #5D81B9",
"x  c #6281B8",
"c  c #6085BB",
"v  c #6286BC",
"b  c #6886BB",
"n  c #6489BE",
"m  c #668ABF",
"M  c #6B8EC1",
"N  c #6E93C5",
"B  c #7597C6",
"V  c #7C9ECB",
"C  c #7EA4D0",
"Z  c #81A7D1",
"A  c #85ACD4",
"S  c #87ADD5",
"D  c #8BB1D7",
"F  c #92B9DC",
"G  c #92B9DD",
"H  c #95BADD",
"J  c #97BEE0",
"K  c #9BC3E3",
"L  c #A1C8E6",
"P  c #A3CAE7",
"I  c #A4CCE8",
"U  c #A5CCE9",
"Y  c #A6CEE9",
"T  c #ABD2EC",
"R  c #ADD4EE",
"E  c #AED5EE",
"W  c #B1D8F0",
"Q  c #B3DAF1",
"!  c #B3DBF1",
"~  c #B4DBF2",
"^  c #B5DCF2",
"/  c #B6DDF3",
"(  c #B7DEF4",
")  c #B7DFF4",
"_  c #B8DFF4",
"`  c #B9E0F5",
"'  c #BBE2F6",
"]  c #BDE4F7",
"[  c #C2E9FA",
"{  c #C4EBFB",
"}  c #C4EBFC",
"|  c #C6EDFD",
" . c #C7EEFD",
".. c None",
/* pixels */
"................................................................",
"................................................................",
"................................................................",
"................................................................",
"................................................................",
"................................................................",
"................................................................",
"................................................................",
"....................................> ..........................",
"....................................................> ..........",
"................................................................",
"................................................................",
"..................X X ....X X X X ........X ....................",
"..................X X ....X ....X X ....X X X ..................",
"................X ....X X X ..X X X ....X ..X X ................",
"..............X X ....X X X ..X X ....X ......X ................",
"..Z ..........O ........X X ....X ..X ..........................",
"..V ........................................................H a ",
"..u P ............X ........................X ............) b ..",
"..: h I { ..............................................~ B 8 ..",
"....: i D Q { .................................... .' K x 7 ....",
"......@ q k A I ' [  ..................... .{ ] R G M t : ......",
"........X = 0 a n C G L T Q ~ _ _ / Q R I J A N g e 1 O ........",
"............  % 1 9 r p g k c n n v z j d y w 6 & X ............",
"..................  O @ - : 1 5 5 3 < - % + X ..................",
"................................................................",
"................................................................",
"................................................................",
"................................................................",
"................................................................",
"................................................................",
"................................................................"
};
