/* XPM */
static char *_b8c19d38a364e8dde99d3d249bcc37e[] = {
/* columns rows colors chars-per-pixel */
"64 64 196 2 ",
"   c #201B72",
".  c #201C72",
"X  c #211C72",
"o  c #211C73",
"O  c #211D73",
"+  c #211E73",
"@  c #221E74",
"#  c #221F74",
"$  c #222075",
"%  c #232075",
"&  c #232176",
"*  c #252478",
"=  c #252579",
"-  c #262579",
";  c #26267A",
":  c #26277A",
">  c #27297B",
",  c #28297C",
"<  c #282A7C",
"1  c #282A7D",
"2  c #292B7D",
"3  c #292C7D",
"4  c #2A2D7E",
"5  c #2A2D7F",
"6  c #F99F1A",
"7  c #2B2F80",
"8  c #2C3282",
"9  c #2D3483",
"0  c #2E3483",
"q  c #2E3584",
"w  c #2F3685",
"e  c #2F3785",
"r  c #303786",
"t  c #303886",
"y  c #303987",
"u  c #313A88",
"i  c #313B88",
"p  c #333E8B",
"a  c #343F8B",
"s  c #34408C",
"d  c #36438E",
"f  c #36448E",
"g  c #36448F",
"h  c #37448F",
"j  c #37458F",
"k  c #364590",
"l  c #384690",
"z  c #384791",
"x  c #394892",
"c  c #394992",
"v  c #394A93",
"b  c #3A4A93",
"n  c #3B4C94",
"m  c #3B4C95",
"M  c #3C4E96",
"N  c #3C5198",
"B  c #3E5198",
"V  c #3E5298",
"C  c #3E5399",
"Z  c #3F549A",
"A  c #41589D",
"S  c #435B9F",
"D  c #445DA0",
"F  c #455FA2",
"G  c #4660A2",
"H  c #4660A3",
"J  c #4661A3",
"K  c #4763A5",
"L  c #4863A5",
"P  c #4865A6",
"I  c #4A66A7",
"U  c #4967A8",
"Y  c #4A67A8",
"T  c #4B6AAA",
"R  c #4C6CAB",
"E  c #4D6DAC",
"W  c #4E6EAC",
"Q  c #4E6FAE",
"!  c #4E70AE",
"~  c #4F71AE",
"^  c #4F71AF",
"/  c #4F72AF",
"(  c #5072AF",
")  c #4F73B0",
"_  c #5173B0",
"`  c #5073B1",
"'  c #5175B1",
"]  c #5374B0",
"[  c #5175B2",
"{  c #5176B2",
"}  c #5276B2",
"|  c #5277B3",
" . c #5278B4",
".. c #5378B4",
"X. c #5379B4",
"o. c #5379B5",
"O. c #537AB5",
"+. c #547AB5",
"@. c #547BB5",
"#. c #547BB6",
"$. c #557BB6",
"%. c #567CB6",
"&. c #567CB7",
"*. c #577DB7",
"=. c #587EB8",
"-. c #587FB8",
";. c #597FB8",
":. c #5A81B9",
">. c #5B81B9",
",. c #5D83BA",
"<. c #5D83BB",
"1. c #5E84BB",
"2. c #5E85BC",
"3. c #6084BB",
"4. c #6086BC",
"5. c #6086BD",
"6. c #6187BD",
"7. c #6288BE",
"8. c #638ABF",
"9. c #658BC0",
"0. c #668CC0",
"q. c #678DC1",
"w. c #678EC1",
"e. c #688EC2",
"r. c #698FC2",
"t. c #698FC3",
"y. c #6990C3",
"u. c #6A90C3",
"i. c #6A91C3",
"p. c #6B91C3",
"a. c #6D93C5",
"s. c #6F95C6",
"d. c #6F96C7",
"f. c #7197C7",
"g. c #7399C8",
"h. c #769CCA",
"j. c #779ECB",
"k. c #799FCC",
"l. c #7AA1CD",
"z. c #7BA2CE",
"x. c #7DA4CF",
"c. c #81A8D2",
"v. c #84ABD4",
"b. c #85ACD4",
"n. c #87ADD5",
"m. c #89B0D7",
"M. c #8AB0D7",
"N. c #8CB2D8",
"B. c #8FB5DA",
"V. c #92B8DC",
"C. c #94BBDD",
"Z. c #96BDDF",
"A. c #98BFE0",
"S. c #9AC0E1",
"D. c #9AC1E1",
"F. c #9CC2E2",
"G. c #9CC3E2",
"H. c #A0C6E5",
"J. c #A1C8E6",
"K. c #A2C8E6",
"L. c #A2C9E6",
"P. c #A3CAE7",
"I. c #A4CAE7",
"U. c #A4CBE8",
"Y. c #A6CDE9",
"T. c #A8CFEA",
"R. c #ABD1EC",
"E. c #AFD6EE",
"W. c #B0D7EF",
"Q. c #B1D7EF",
"!. c #B1D8EF",
"~. c #B1D8F0",
"^. c #B3DAF1",
"/. c #B4DAF1",
"(. c #B4DBF2",
"). c #B5DCF2",
"_. c #B7DEF3",
"`. c #B7DEF4",
"'. c #B8DFF4",
"]. c #B9E0F5",
"[. c #BBE1F6",
"{. c #BBE2F6",
"}. c #BCE2F6",
"|. c #BDE4F7",
" X c #BEE5F8",
".X c #BFE6F8",
"XX c #BFE6F9",
"oX c #C0E7F9",
"OX c #C1E8FA",
"+X c #C2E9FA",
"@X c #C2E9FB",
"#X c #C3EAFB",
"$X c #C4EBFB",
"%X c #C4EBFC",
"&X c #C5ECFC",
"*X c None",
/* pixels */
"*X*X*X*X*X*X*X*X*X*X*X*X*X*X*X*X*X*X*X*X*X*X*X*X*X*X*X*X*X*X*X*X*X*X*X*X*X*X*X*X*X*X*X*X*X*X*X*X*X*X*X*X*X*X*X*X*X*X*X*X*X*X*X*X",
"*X*X*X*X*X*X*X*X*X*X*X*X*X*X*X*X*X*X*X*X*X*X*X*X*X*X*X*X*X*X*X*X*X*X*X*X*X*X*X*X*X*X*X*X*X*X*X*X*X*X*X*X*X*X*X*X*X*X*X*X*X*X*X*X",
"*X*X*X*X*X*X*X*X*X*X*X*X*X*X*X*X*X*X*X*X*X*X*X*X*X*X*X*X*X*X*X*X*X*X*X*X*X*X*X*X*X*X*X*X*X*X*X*X*X*X*X*X*X*X*X*X*X*X*X*X*X*X*X*X",
"*X*X*X*X*X*X*X*X*X*X*X*X*X*X*X*X*X*X*X*X*X*X*X*X*X*X*X*X*X*X*X*X*X*X*X*X*X*X*X*X*X*X*X*X*X*X*X*X*X*X*X*X*X*X*X*X*X*X*X*X*X*X*X*X",
"*X*X*X*X*X*X*X*X*X*X*X*X*X*X*X*X*X*X*X*X*X*X*X*X*X*X*X*X*X*X*X*X*X*X*X*X*X*X*X*X*X*X*X*X*X*X*X*X*X*X*X*X*X*X*X*X*X*X*X*X*X*X*X*X",
"*X*X*X*X*X*X*X*X*X*X*X*X*X*X*X*X*X*X*X*X*X*X*X*X*X*X*X*X*X*X*X*X*X*X*X*X*X*X*X*X*X*X*X*X*X*X*X*X*X*X*X*X*X*X*X*X*X*X*X*X*X*X*X*X",
"*X*X*X*X*X*X*X*X*X*X*X*X*X*X*X*X*X*X*X*X*X*X*X*X*X*X*X*X*X*X*X*X*X*X*X*X*X*X*X*X*X*X*X*X*X*X*X*X*X*X*X*X*X*X*X*X*X*X*X*X*X*X*X*X",
"*X*X*X*X*X*X*X*X*X*X*X*X*X*X*X*X*X*X*X*X*X*X*X*X*X*X*X*X*X*X*X*X*X*X*X*X*X*X*X*X*X*X*X*X*X*X*X*X*X*X*X*X*X*X*X*X*X*X*X*X*X*X*X*X",
"*X*X*X*X*X*X*X*X*X*X*X*X*X*X*X*X*X*X*X*X*X*X*X*X*X*X*X*X*X*X*X*X*X*X*X*X*X*X*X*X*X*X*X*X*X*X*X*X*X*X*X*X*X*X*X*X*X*X*X*X*X*X*X*X",
"*X*X*X*X*X*X*X*X*X*X*X*X*X*X*X*X*X*X*X*X*X*X*X*X*X*X*X*X*X*X*X*X*X*X*X*X*X*X*X*X*X*X*X*X*X*X*X*X*X*X*X*X*X*X*X*X*X*X*X*X*X*X*X*X",
"*X*X*X*X*X*X*X*X*X*X*X*X*X*X*X*X*X*X*X*X*X*X*X*X*X*X*X*X*X*X*X*X*X*X*X*X*X*X*X*X*X*X*X*X*X*X*X*X*X*X*X*X*X*X*X*X*X*X*X*X*X*X*X*X",
"*X*X*X*X*X*X*X*X*X*X*X*X*X*X*X*X*X*X*X*X*X*X*X*X*X*X*X*X*X*X*X*X*X*X*X*X*X*X*X*X*X*X*X*X*X*X*X*X*X*X*X*X*X*X*X*X*X*X*X*X*X*X*X*X",
"*X*X*X*X*X*X*X*X*X*X*X*X*X*X*X*X*X*X*X*X*X*X*X*X*X*X*X*X*X*X*X*X*X*X*X*X*X*X*X*X*X*X*X*X*X*X*X*X*X*X*X*X*X*X*X*X*X*X*X*X*X*X*X*X",
"*X*X*X*X*X*X*X*X*X*X*X*X*X*X*X*X*X*X*X*X*X*X*X*X*X*X*X*X*X*X*X*X*X*X*X*X*X*X*X*X*X*X*X*X*X*X*X*X*X*X*X*X*X*X*X*X*X*X*X*X*X*X*X*X",
"*X*X*X*X*X*X*X*X*X*X*X*X*X*X*X*X*X*X*X*X*X*X*X*X*X*X*X*X*X*X*X*X*X*X*X*X*X*X*X*X*X*X*X*X*X*X*X*X*X*X*X*X*X*X*X*X*X*X*X*X*X*X*X*X",
"*X*X*X*X*X*X*X*X*X*X*X*X*X*X*X*X*X*X*X*X*X*X*X*X*X*X*X*X*X6 6 *X*X*X*X*X*X*X*X*X*X*X*X*X*X6 6 *X*X*X*X*X*X*X*X*X*X*X*X*X*X*X*X*X",
"*X*X*X*X*X*X*X*X*X*X*X*X*X*X*X*X*X*X*X*X*X*X*X*X*X*X*X*X*X6 *X*X*X*X*X*X6 6 *X*X*X*X*X*X*X6 6 *X*X*X*X*X*X*X*X*X*X*X*X*X*X*X*X*X",
"*X*X*X*X*X*X*X*X*X*X*X*X*X*X*X*X*X*X*X*X*X*X*X*X*X*X*X*X*X*X*X*X*X*X*X*X6 6 *X*X*X*X*X*X*X*X*X*X*X*X*X*X*X*X*X*X*X*X*X*X*X*X*X*X",
"*X*X*X*X*X*X*X*X*X*X*X*X*X*X*X*X*X*X*X*X*X*X*X*X*X*X*X*X*X*X*X*X*X*X*X*X*X*X*X*X*X*X*X*X*X*X*X*X*X*X*X*X6 *X*X*X*X*X*X*X*X*X*X*X",
"*X*X*X*X*X*X*X*X*X*X*X*X*X*X*X*X*X*X*X*X*X*X*X6 6 *X*X*X*X*X*X*X*X*X*X*X*X*X*X*X*X*X*X*X*X*X*X*X*X*X*X*X6 6 *X*X*X*X*X*X*X*X*X*X",
"*X*X*X*X*X*X*X*X*X*X*X*X*X*X*X*X*X*X*X*X*X*X*X*X*X*X*X*X*X*X*X*X*X*X*X*X*X*X*X*X*X*X6 6 *X*X*X*X*X*X*X*X*X*X*X*X*X*X*X*X*X*X*X*X",
"*X*X*X*X*X*X*X*X*X*X*X*X*X*X*X*X*X*X*X*X*X*X*X*X*X*X*X*X*X*X*X*X*X*X*X*X*X*X*X*X*X*X*X*X*X*X*X*X*X*X*X*X*X*X*X*X*X*X*X*X*X*X*X*X",
"*X*X*X*X*X*X*X*X*X*X*X*X*X*X*X*X*X*X*X*X*X*X*X*X*X*X*X*X*X*X*X*X*X*X*X*X*X*X*X*X*X*X*X*X*X*X*X*X*X*X*X*X*X*X*X*X*X*X*X*X*X*X*X*X",
"*X*X*X*X*X*X*X*X*X*X*X*X*X*X*X*X*X*X*X*X*X*X*X*X*X*X*X*X*X*X*X*X*X*X*X*X*X*X*X*X*X*X*X*X*X*X*X*X6 6 *X*X*X*X*X*X*X*X*X*X*X*X*X*X",
"*X*X*X*X*X*X*X*X*X*X*X*X*X*X*X*X*X*X*XO O *X*X*X*X*XO O O O O O O O *X*X*X*X*X*X*X*XO O *X*X*X*X6 6 *X*X*X*X*X*X*X*X*X*X*X*X*X*X",
"*X*X*X*X*X*X*X*X*X*X*X*X*X*X*X*X*X*XO O O O *X*X*XO O O O O O O O O O *X*X*X*X*X*XO O O O *X*X*X*X*X*X*X*X*X*X*X*X*X*X*X*X*X*X*X",
"*X*X*X*X*X*X*X*X*X*X*X*X*X*X*X*X*X*XO O O O *X*X*XO O O *X*X*X*X*XO O *X*X*X*X*X*XO O O O O *X*X*X*X*X*X*X*X*X*X*X*X*X*X*X*X*X*X",
"*X*X*X*X*X*X*X*X*X*X*X*X*X*X*X*X*XO O O O O O *X*XO O O *X*X*X*X*XO O *X*X*X*X*XO O O O O O *X*X*X*X*X*X*X*X*X*X*X*X*X*X*X*X*X*X",
"*X*X*X*X*X*X*X*X*X*X*X*X*X*X*X*XO O O *X*XO O O *XO O O *X*X*X*X*XO O *X*X*X*X*XO O *X*XO O O *X*X*X*X*X*X*X*X*X*X*X*X*X*X*X*X*X",
"*X*X*X*X*X*X*X*X*X*X*X*X*X*X*X*XO O O *X*X*XO O *XO O O *XO O O O O O *X*X*X*XO O O *X*X*XO O O *X*X*X*X*X*X*X*X*X*X*X*X*X*X*X*X",
"*X*X*X*X*X*X*X*X*X*X*X*X*X*X*XO O O *X*X*X*XO O O O O O *XO O O O O *X*X*X*XO O O *X*X*X*XO O O *X*X*X*X*X*X*X*X*X*X*X*X*X*X*X*X",
"*X*X*X*X*X*X*X*X*X*X*X*X*X*XO O O *X*X*X*X*X*XO O O O O *X*X*XO O O *X*X*X*XO O *X*X*X*X*X*XO O O *X*X*X*X*X*X*X*X*X*X*X*X*X*X*X",
"*X*Xa.*X*X*X*X*X*X*X*X*X*X*XO O O *X*X*X*X*X*X*XO O O O *X*X*X*XO O O *X*XO O O *X*X*X*X*X*X*XO O *X*X*X*X*X*X*X*X*X*X*X*X*X5.*X",
"*X*Xf.*X*X*X*X*X*X*X*X*X*X*X*X*X*X*X*X*X*X*X*X*X*X*X*X*X*X*X*X*X*X*X*X*X*XO *X*X*X*X*X*X*X*X*X*X*X*X*X*X*X*X*X*X*X*X*X*X*XK.<.*X",
"*X*X5./.*X*X*X*X*X*X*X*X*X*X*X*X*X*X*X*X*X*X*X*X*X*X*X*X*X*X*X*X*X*X*X*X*X*X*X*X*X*X*X*X*X*X*X*X*X*X*X*X*X*X*X*X*X*X*X*X*XA.W *X",
"*X*XP S.&X*X*X*X*X*X*X*X*X*X*XO *XO O O O *X*XO *XO O *X*X*XO *X*XO *X*X*XO O *X*XO *XO *X*XO *XO *X*X*X*X*X*X*X*X*X*X*XoXj.C *X",
"*X*Xk p._.&X*X*X*X*X*X*X*X*X*X*X*X*XO O *X*XO *X*X*XO *X*X*XO *XO *X*X*X*X*XO *X*X*X*X*XO O *X*X*XO *X*X*X*X*X*X*X*X*X%XK.] 9 *X",
"*X*X; K c..X%X*X*X*X*X*X*X*X*X*X*X*XO O *X*XO *X*X*XO *X*X*XO *XO *X*X*X*X*X*X*X*X*X*X*XO O *X*X*XO *X*X*X*X*X*X*X*X&XE.r.v O *X",
"*X*X  e _ b. X&X#X*X*X*X*X*X*XO O O O *X*X*X*XO *XO O *X*X*X*X*X*X*X*X*X*X*X*X*X*XO *XO *X*X*X*X*X*X*X*X*X*X*X*X%X%XW.f.F ; *X*X",
"*X*X*XO s | l.~.&X#X*X*X*X*X*X*X*X*X*X*X*X*X*X*X*X*X*X*X*X*X*X*X*X*X*X*X*X*X*X*X*X*X*X*X*X*X*X*X*X*X*X*X*X*X#X%X#XI.r.P 3 O *X*X",
"*X*X*X*XO d ! r.S.XX&X%X#X*X*X*X*X*X*X*X*X*X*X*X*X*X*X*X*X*X*X*X*X*X*X*X*X*X*X*X*X*X*X*X*X*X*X*X*X*X*X*X#X#X#X_.M.<.K 3 O *X*X*X",
"*X*X*X*XO O e P =.j.U.XX&X$X#X*X*X*X*X*X*X*X*X*X*X*X*X*X*X*X*X*X*X*X*X*X*X*X*X*X*X*X*X*X*X*X*X*X*X#X#X%X#X[.Z.p...A > O *X*X*X*X",
"*X*X*X*X*XO O , Z ] :.h.G.[.#X&X%X#X#X*X*X*X*X*X*X*X*X*X*X*X*X*X*X*X*X*X*X*X*X*X*X*X*X*X*X$X#X$X%X&X#XE.B.p.%.R d &   *X*X*X*X*X",
"*X*X*X*X*X*X*XO O e F | %.0.v.K.`.#X$X&X%X#X#X#X#X*X*X*X*X*X*X*X*X*X*X*X*X*X*X$X#X#X#X$X%X%X%X X~.A.l.2.O.! B 3 O O *X*X*X*X*X*X",
"*X*X*X*X*X*X*X*XO O & i D ) O.;.9.k.V.Y._. X#X%X$X&X&X%X&X#X$X$X$X$X%X$X%X%X$X&X&X%X#X[.W.G.M.g.5.%.O.W B 3 @ O O *X*X*X*X*X*X*X",
"*X*X*X*X*X*X*X*X*X*XO   @ 9 m U | O.%.=.5.s.x.N.S.K.R.!._._.[.[.}.[.'._./.W.T.H.C.n.j.p.2.;.O.O.! J d > O O @ *X*X*X*X*X*X*X*X*X",
"*X*X*X*X*X*X*X*X*X*X*X*X@   O * e b K Q | O.O.O.%.%.<.<.2.0.0.p.p.r.0.8.5.<.;.%.%.O.O.O.| R S h 7 & O   O *X*X*X*X*X*X*X*X*X*X*X",
"*X*X*X*X*X*X*X*X*X*X*X*X*X*XO @     @ 2 r v A K R ! | | O.O.O.O.O.O.O.O...| | Q T F C d 9 ; @   O O O *X*X*X*X*X*X*X*X*X*X*X*X*X",
"*X*X*X*X*X*X*X*X*X*X*X*X*X*X*X*X*XO O O   O O & ; 3 0 u s h z v v v h d p e 9 2 ; @ O O   O O @ *X*X*X*X*X*X*X*X*X*X*X*X*X*X*X*X",
"*X*X*X*X*X*X*X*X*X*X*X*X*X*X*X*X*X*X*X*X*XO O O O O   O   O . . O . O O O     O O O O O *X*X*X*X*X*X*X*X*X*X*X*X*X*X*X*X*X*X*X*X",
"*X*X*X*X*X*X*X*X*X*X*X*X*X*X*X*X*X*X*X*X*X*X*X*X*X*X*XO O O O O O O O O O *X*X*X*X*X*X*X*X*X*X*X*X*X*X*X*X*X*X*X*X*X*X*X*X*X*X*X",
"*X*X*X*X*X*X*X*X*X*X*X*X*X*X*X*X*X*X*X*X*X*X*X*X*X*X*X*X*X*X*X*X*X*X*X*X*X*X*X*X*X*X*X*X*X*X*X*X*X*X*X*X*X*X*X*X*X*X*X*X*X*X*X*X",
"*X*X*X*X*X*X*X*X*X*X*X*X*X*X*X*X*X*X*X*X*X*X*X*X*X*X*X*X*X*X*X*X*X*X*X*X*X*X*X*X*X*X*X*X*X*X*X*X*X*X*X*X*X*X*X*X*X*X*X*X*X*X*X*X",
"*X*X*X*X*X*X*X*X*X*X*X*X*X*X*X*X*X*X*X*X*X*X*X*X*X*X*X*X*X*X*X*X*X*X*X*X*X*X*X*X*X*X*X*X*X*X*X*X*X*X*X*X*X*X*X*X*X*X*X*X*X*X*X*X",
"*X*X*X*X*X*X*X*X*X*X*X*X*X*X*X*X*X*X*X*X*X*X*X*X*X*X*X*X*X*X*X*X*X*X*X*X*X*X*X*X*X*X*X*X*X*X*X*X*X*X*X*X*X*X*X*X*X*X*X*X*X*X*X*X",
"*X*X*X*X*X*X*X*X*X*X*X*X*X*X*X*X*X*X*X*X*X*X*X*X*X*X*X*X*X*X*X*X*X*X*X*X*X*X*X*X*X*X*X*X*X*X*X*X*X*X*X*X*X*X*X*X*X*X*X*X*X*X*X*X",
"*X*X*X*X*X*X*X*X*X*X*X*X*X*X*X*X*X*X*X*X*X*X*X*X*X*X*X*X*X*X*X*X*X*X*X*X*X*X*X*X*X*X*X*X*X*X*X*X*X*X*X*X*X*X*X*X*X*X*X*X*X*X*X*X",
"*X*X*X*X*X*X*X*X*X*X*X*X*X*X*X*X*X*X*X*X*X*X*X*X*X*X*X*X*X*X*X*X*X*X*X*X*X*X*X*X*X*X*X*X*X*X*X*X*X*X*X*X*X*X*X*X*X*X*X*X*X*X*X*X",
"*X*X*X*X*X*X*X*X*X*X*X*X*X*X*X*X*X*X*X*X*X*X*X*X*X*X*X*X*X*X*X*X*X*X*X*X*X*X*X*X*X*X*X*X*X*X*X*X*X*X*X*X*X*X*X*X*X*X*X*X*X*X*X*X",
"*X*X*X*X*X*X*X*X*X*X*X*X*X*X*X*X*X*X*X*X*X*X*X*X*X*X*X*X*X*X*X*X*X*X*X*X*X*X*X*X*X*X*X*X*X*X*X*X*X*X*X*X*X*X*X*X*X*X*X*X*X*X*X*X",
"*X*X*X*X*X*X*X*X*X*X*X*X*X*X*X*X*X*X*X*X*X*X*X*X*X*X*X*X*X*X*X*X*X*X*X*X*X*X*X*X*X*X*X*X*X*X*X*X*X*X*X*X*X*X*X*X*X*X*X*X*X*X*X*X",
"*X*X*X*X*X*X*X*X*X*X*X*X*X*X*X*X*X*X*X*X*X*X*X*X*X*X*X*X*X*X*X*X*X*X*X*X*X*X*X*X*X*X*X*X*X*X*X*X*X*X*X*X*X*X*X*X*X*X*X*X*X*X*X*X",
"*X*X*X*X*X*X*X*X*X*X*X*X*X*X*X*X*X*X*X*X*X*X*X*X*X*X*X*X*X*X*X*X*X*X*X*X*X*X*X*X*X*X*X*X*X*X*X*X*X*X*X*X*X*X*X*X*X*X*X*X*X*X*X*X",
"*X*X*X*X*X*X*X*X*X*X*X*X*X*X*X*X*X*X*X*X*X*X*X*X*X*X*X*X*X*X*X*X*X*X*X*X*X*X*X*X*X*X*X*X*X*X*X*X*X*X*X*X*X*X*X*X*X*X*X*X*X*X*X*X"
};
