/* XPM */
static char *_d08cb1aa1314313ba9b163c8067ba95[] = {
/* columns rows colors chars-per-pixel */
"16 16 27 1 ",
"  c #1F1C74",
". c #211D73",
"X c #2B3282",
"o c #2C3282",
"O c #2C3383",
"+ c #2F3786",
"@ c #2F3886",
"# c #414F95",
"$ c #415096",
"% c #45559A",
"& c #48589C",
"* c #5468A6",
"= c #5971AD",
"- c #5D76B0",
"; c #6D8BBE",
": c #6F8CBE",
"> c #708EC0",
", c #7795C5",
"< c #7A9BC9",
"1 c #7C9DCA",
"2 c #83A3CD",
"3 c #81A4CE",
"4 c #82A4CF",
"5 c #8EB0D6",
"6 c #97BCDE",
"7 c #9DC3E2",
"8 c None",
/* pixels */
"8888888888888888",
"8888888888888888",
"8888888888888888",
"8888888888888888",
"8888888888888888",
"8888888888888888",
"8888888888 88888",
"888888.8.8888888",
"8888888888888888",
"828888888888885*",
"8#:6888888887,&8",
"888$=;<441>-%o88",
"888888X@@o888888",
"8888888888888888",
"8888888888888888",
"8888888888888888"
};
